<?xml version="1.0" encoding="UTF-8"?>
<!-- Generated by Pixelmator Pro 4.2 - White Variant -->
<svg width="1024" height="1024" viewBox="0 0 1024 1024" xmlns="http://www.w3.org/2000/svg">
    <path id="Rounded-Rectangle" fill="#FFFFFF" fill-rule="evenodd" stroke="none" d="M 460.015625 710.820313 L 732.5625 710.820313 L 748 648.90625 L 748 646.820313 L 477.164063 646.820313 L 599.296875 191 L 533.039063 191 L 393.710938 711 L 459.96875 711 Z"/>
    <path id="Rectangle" fill="#FFFFFF" fill-rule="evenodd" stroke="none" d="M 719.34375 769.007813 L 490.796875 769.054688 L 387 769 L 386.9375 768.367188 C 361.493561 764.306641 342 741.343506 342 713.623291 C 342 706.989502 343.116394 700.628174 345.163605 694.733276 L 411.570313 447.6875 L 480.648438 191 L 414.398438 191 L 321.75 536.75 L 322.070313 536.828125 L 280.226563 692.640625 C 278.773163 700.176086 278 707.994141 278 716 C 278 780.61731 328.36795 833 390.5 833 L 394.03125 832.945313 L 703.390625 833 Z"/>
</svg>